<?xml version="1.0" encoding="UTF-8"?>
<svg xmlns="http://www.w3.org/2000/svg" id="Icons" viewBox="0 0 60 60" width="512" height="512"><path fill="#fff" d="M50,31a9.966,9.966,0,0,0-2.635.364l-1.019-2.651a13.951,13.951,0,0,1,10.1,2.119,1,1,0,1,0,1.11-1.664A15.761,15.761,0,0,0,46,26.737V24h1a3,3,0,0,0,3-3V17c0-3.841-2.218-6.789-6.246-8.3a2,2,0,0,0-2.507,2.737c1.284,2.7,1.316,4.714.1,6.019l-1.9-3.8A2.984,2.984,0,0,0,36.764,12H34a1,1,0,0,0,0,2h2.764a.994.994,0,0,1,.894.553L39.382,18H35.925a5,5,0,0,0-2.55.7,10.155,10.155,0,0,0-4.3,4.932c-1.331,3.325-10.56.648-13.7-.559A18.006,18.006,0,0,0,2.684,22.052a1,1,0,1,0,.632,1.9,16.283,16.283,0,0,1,10.684.7v2.447a3.006,3.006,0,0,0,1.024,2.258l6.5,5.687a3.006,3.006,0,0,1,.871,1.309l.3.91-3.182.681A9.99,9.99,0,1,0,20,41a10.124,10.124,0,0,0-.065-1.107l3.4-.728.261.784A3,3,0,0,0,26.441,42h6.146a2.984,2.984,0,0,0,2.795-1.89c.982-2.485,3.771-8.3,9.057-10.781L45.5,32.083A9.98,9.98,0,1,0,50,31ZM18,41a8.032,8.032,0,1,1-.457-2.639L14.575,39A4.988,4.988,0,1,0,15,41c0-.016-.005-.032-.005-.048l2.97-.636C17.985,40.542,18,40.769,18,41Zm-8.978.21a1,1,0,0,0,1.187.768l2.752-.59a3,3,0,1,1-.415-1.956l-2.755.59A1,1,0,0,0,9.022,41.21ZM48,17v4a1,1,0,0,1-1,1H45.5l-1.8-2.4a3.965,3.965,0,0,0-.863-.819c1.737-1.9,1.839-4.8.215-8.209C45.309,11.42,48,13.222,48,17ZM44,27.325c-6.2,2.683-9.38,9.272-10.479,12.05a1.006,1.006,0,0,1-.934.625H26.441a1,1,0,0,1-.948-.684l-1.2-3.6a4.988,4.988,0,0,0-1.451-2.183l-6.5-5.687A1,1,0,0,1,16,27.093V25.42c3.669,1.236,12.98,3.822,14.929-1.049A8.163,8.163,0,0,1,34.4,20.417,3,3,0,0,1,35.925,20H40.5a2.01,2.01,0,0,1,1.6.8L44,23.333ZM50,49a8,8,0,0,1-3.782-15.047L47.312,36.8A4.983,4.983,0,1,0,50,36a4.933,4.933,0,0,0-.82.083l-1.093-2.842A8,8,0,1,1,50,49Zm-.934-7.641a1,1,0,1,0,1.868-.718l-1.013-2.633c.027,0,.052-.008.079-.008a3.037,3.037,0,1,1-1.943.734Z"/></svg>