<svg height="512" viewBox="0 0 46 60" width="512" xmlns="http://www.w3.org/2000/svg"><g id="Page-1" fill="none" fill-rule="evenodd"><g id="093---Vote-Clipboard" fill="rgb(0,0,0)" transform="translate(0 -1)"><path id="Shape" fill="#fff" d="m41 7h-6.278c-.3544126-.61675126-1.0106732-.997855-1.722-1l-3.286.031c-.8693065-2.97621872-3.5948399-5.02447328-6.6954076-5.03163875-3.1005678-.00716547-5.835539 2.02846976-6.7185924 5.00063875h-3.3c-.7113268.002145-1.3675874.38324874-1.722 1h-6.278c-2.76005315.00330612-4.99669388 2.23994685-5 5v44c.00330612 2.7600532 2.23994685 4.9966939 5 5h36c2.7600532-.0033061 4.9966939-2.2399468 5-5v-44c-.0033061-2.76005315-2.2399468-4.99669388-5-5zm-28 8h20c1.1045695 0 2-.8954305 2-2h5v42h-34v-42h5c0 1.1045695.8954305 2 2 2zm3.3-7c.8773279.00280966 1.6525516-.5703762 1.907-1.41.6241257-2.12743771 2.5759019-3.58887909 4.793-3.58887909s4.1688743 1.46144138 4.793 3.58887909c.2544484.8396238 1.0296721 1.41280966 1.907 1.41h3.3v5h-20v-5zm27.7 48c0 1.6568542-1.3431458 3-3 3h-36c-1.65685425 0-3-1.3431458-3-3v-44c0-1.6568542 1.34314575-3 3-3h6v2h-5c-1.1045695 0-2 .8954305-2 2v42c0 1.1045695.8954305 2 2 2h34c1.1045695 0 2-.8954305 2-2v-42c0-1.1045695-.8954305-2-2-2h-5v-2h6c1.6568542 0 3 1.3431458 3 3z" fill-rule="nonzero"/><path id="Shape" fill="#fff" d="m23 11c1.6568542 0 3-1.34314575 3-3s-1.3431458-3-3-3-3 1.34314575-3 3 1.3431458 3 3 3zm0-4c.5522847 0 1 .44771525 1 1s-.4477153 1-1 1-1-.44771525-1-1 .4477153-1 1-1z" fill-rule="nonzero"/><path id="Path" fill="#fff" d="m33 31h4c.5522847 0 1-.4477153 1-1s-.4477153-1-1-1h-3v-3h2c.5522847 0 1-.4477153 1-1s-.4477153-1-1-1h-2v-3h3c.5522847 0 1-.4477153 1-1s-.4477153-1-1-1h-4c-.5522847 0-1 .4477153-1 1v10c0 .5522847.4477153 1 1 1z"/><path id="Path" fill="#fff" d="m26 21h1v9c0 .5522847.4477153 1 1 1s1-.4477153 1-1v-9h1c.5522847 0 1-.4477153 1-1s-.4477153-1-1-1h-4c-.5522847 0-1 .4477153-1 1s.4477153 1 1 1z"/><g fill-rule="nonzero"><path id="Shape" fill="#fff" d="m21 31c1.6568542 0 3-1.3431458 3-3v-6c0-1.6568542-1.3431458-3-3-3s-3 1.3431458-3 3v6c0 1.6568542 1.3431458 3 3 3zm-1-9c0-.5522847.4477153-1 1-1s1 .4477153 1 1v6c0 .5522847-.4477153 1-1 1s-1-.4477153-1-1z"/><path id="Shape" fill="#fff" d="m11 48h8c1.6568542 0 3-1.3431458 3-3v-8c0-1.6568542-1.3431458-3-3-3h-8c-1.65685425 0-3 1.3431458-3 3v8c0 1.6568542 1.34314575 3 3 3zm-1-11c0-.5522847.4477153-1 1-1h8c.5522847 0 1 .4477153 1 1v8c0 .5522847-.4477153 1-1 1h-8c-.5522847 0-1-.4477153-1-1z"/><path id="Shape" fill="#fff" d="m24 45c0 1.6568542 1.3431458 3 3 3h8c1.6568542 0 3-1.3431458 3-3v-8c0-1.6568542-1.3431458-3-3-3h-8c-1.6568542 0-3 1.3431458-3 3zm2-8c0-.5522847.4477153-1 1-1h8c.5522847 0 1 .4477153 1 1v8c0 .5522847-.4477153 1-1 1h-8c-.5522847 0-1-.4477153-1-1z"/></g><path id="Path" fill="#fff" d="m19 50h-8c-.5522847 0-1 .4477153-1 1s.4477153 1 1 1h8c.5522847 0 1-.4477153 1-1s-.4477153-1-1-1z"/><path id="Path" fill="#fff" d="m35 50h-8c-.5522847 0-1 .4477153-1 1s.4477153 1 1 1h8c.5522847 0 1-.4477153 1-1s-.4477153-1-1-1z"/><path id="Path" fill="#fff" d="m11.042 30.287c.1267034.4232751.5161679.7132318.958.7132318s.8312966-.2899567.958-.7132318l3-10c.1585057-.5290888-.1419112-1.0864943-.671-1.245s-1.0864943.1419112-1.245.671l-2.042 6.807-2.042-6.807c-.15850573-.5290888-.71591121-.8295057-1.245-.671-.52908878.1585057-.82950571.7159112-.671 1.245z"/></g></g></svg>