<svg id="Capa_1" enable-background="new 0 0 609.817 609.817" height="512" viewBox="0 0 609.817 609.817" width="512" xmlns="http://www.w3.org/2000/svg" fill="#fff"><g><g id="Page-1_1_"><g id="_x30_02---Search" transform="translate(-1)"><path id="Shape_3_" fill="#fff" d="m244.953 487.699c54.13.029 106.716-18.043 149.392-51.342l21.921 21.87c-7.935 7.937-7.935 20.803 0 28.74l107.796 107.806c19.846 19.846 52.024 19.846 71.871 0s19.847-52.024 0-71.871l-107.796-107.785c-8.042-7.676-20.698-7.676-28.74 0l-21.88-21.931c69.443-89.674 67.863-215.395-3.812-303.295s-194.506-114.753-296.322-64.78-155.713 163.566-130.024 274.037 124.176 188.629 237.594 188.551zm271.924-15.092-43.11 43.11-14.38-14.37 43.12-43.12zm64.685 107.796c-11.922 11.882-31.209 11.882-43.131 0l-50.295-50.305 43.12-43.12 50.305 50.295c11.883 11.921 11.883 31.208.001 43.13zm-93.425-136.546-43.12 43.12-14.37-14.37 43.12-43.12zm-43.121-14.39-14.39 14.39-20.651-20.651c4.987-4.607 9.783-9.404 14.39-14.39zm-200.063-409.252c123.479 0 223.579 100.1 223.579 223.579s-100.1 223.579-223.579 223.579-223.579-100.099-223.579-223.579c.14-123.421 100.158-223.439 223.579-223.579z"/><path id="Shape_2_" fill="#fff" d="m244.953 447.048c112.254 0 203.254-91 203.254-203.254s-91-203.254-203.254-203.254-203.253 91-203.253 203.254c.128 112.201 91.053 203.125 203.253 203.254zm0-386.182c101.029 0 182.928 81.9 182.928 182.928s-81.9 182.928-182.928 182.928-182.928-81.9-182.928-182.928c.118-100.98 81.949-182.811 182.928-182.928z"/><path id="Path_2_" fill="#fff" clip-rule="evenodd" d="m153.489 132.005c2.2.004 4.341-.709 6.098-2.033 24.586-18.55 54.568-28.544 85.367-28.456 5.613 0 10.163-4.55 10.163-10.163s-4.55-10.163-10.163-10.163c-35.199-.104-69.465 11.318-97.562 32.521-3.499 2.625-4.927 7.194-3.544 11.344s5.267 6.95 9.641 6.95z" fill-rule="evenodd"/></g></g></g></svg>