<?xml version="1.0" encoding="iso-8859-1"?>
<!-- Generator: Adobe Illustrator 19.0.0, SVG Export Plug-In . SVG Version: 6.00 Build 0)  -->
<svg version="1.1" id="Capa_1" xmlns="http://www.w3.org/2000/svg" xmlns:xlink="http://www.w3.org/1999/xlink" x="0px" y="0px"
	 viewBox="0 0 512.003 512.003" style="enable-background:new 0 0 512.003 512.003;" xml:space="preserve">
<g>
	<g>
		<path fill="#fff" d="M456.306,2.34c-1.751-1.679-4.141-2.52-6.558-2.308c-91.292,7.4-154.384,35.279-187.525,82.854
			c-22.545,33.377-30.355,74.563-21.596,113.876c-2.063,5.08-3.766,10.299-5.094,15.619c-2.938-4.44-6.24-8.628-9.872-12.521
			c6.093-30.19-0.186-61.563-17.429-87.083C182.339,75.606,133.223,53.844,62.256,48.09c-2.418-0.22-4.812,0.622-6.558,2.308
			c-1.757,1.667-2.726,4-2.667,6.421c0.117,4.221,3.408,103.8,61.842,144.563c16.297,11.277,35.718,17.166,55.533,16.838
			c14.448-0.232,28.784-2.572,42.555-6.946c8.552,9.42,15.042,20.524,19.052,32.598c0.16,12.76,1.987,25.445,5.433,37.731H126.172
			c-2.263-0.001-4.434,0.898-6.035,2.499c-1.6,1.6-2.499,3.771-2.499,6.035v42.667c0.011,9.421,7.645,17.056,17.067,17.067h1.246
			l22.187,140.525c1.912,12.471,12.667,21.662,25.284,21.608h124.433c12.616,0.054,23.371-9.138,25.283-21.608l22.188-140.525h1.246
			c9.421-0.011,17.056-7.646,17.067-17.067v-42.667c0.001-2.263-0.898-4.434-2.499-6.035c-1.6-1.6-3.771-2.499-6.035-2.499H255.285
			c-8.025-24.243-8.133-50.409-0.307-74.717c17.547,5.554,35.808,8.526,54.211,8.821c25.196,0.427,49.892-7.053,70.617-21.388
			c74.792-52.158,79.017-180.133,79.167-185.558C459.032,6.34,458.063,4.007,456.306,2.34z M88.789,93.228
			c48.465,21.033,88.889,57.082,115.312,102.831c-31.768,8.727-58.498,5.931-79.429-8.652l0,0
			C83.089,158.436,73.081,91.128,70.764,66.024c60.142,6.391,101.608,25.313,123.325,56.308
			c10.477,15.242,16.24,33.229,16.572,51.722c-28.028-42.93-68.187-76.558-115.372-96.61c-4.358-1.795-9.347,0.283-11.142,4.642
			C82.352,86.445,84.43,91.433,88.789,93.228z M134.706,332.803V298.67h56.2l-34.133,34.133H134.706z M163.015,411.894
			l-9.793-62.024h71.817L163.015,411.894z M316.289,487.736c-0.642,4.156-4.228,7.218-8.433,7.2H183.422
			c-4.205,0.018-7.791-3.044-8.433-7.2l-8.685-55.01l0.034-0.024l82.834-82.833h88.883L316.289,487.736z M249.269,298.67
			l0.029,0.004l0.02-0.004h107.255l0.008,34.133H180.905l34.133-34.133H249.269z M370.014,180.349
			c-28.415,19.79-64.723,23.301-107.872,10.852c16.815-27.456,73.478-110.379,164.731-147.952c2.823-1.159,4.813-3.736,5.218-6.761
			c0.406-3.024-0.834-6.035-3.252-7.897c-2.418-1.862-5.646-2.291-8.466-1.125c-86.65,35.68-142.391,107.893-165.9,143.76
			c-1.594-27.874,6.051-55.495,21.751-78.581c28.933-41.529,84.433-66.646,165.075-74.713
			C438.806,48.07,426.614,140.903,370.014,180.349z"/>
	</g>
</g>
<g>
</g>
<g>
</g>
<g>
</g>
<g>
</g>
<g>
</g>
<g>
</g>
<g>
</g>
<g>
</g>
<g>
</g>
<g>
</g>
<g>
</g>
<g>
</g>
<g>
</g>
<g>
</g>
<g>
</g>
</svg>
